<?xml version="1.0" encoding="utf-8"?>
<!-- Generator: Adobe Illustrator 22.1.0, SVG Export Plug-In . SVG Version: 6.00 Build 0)  -->
<svg version="1.1" id="Laag_1" xmlns="http://www.w3.org/2000/svg" xmlns:xlink="http://www.w3.org/1999/xlink" x="0px" y="0px"
	 viewBox="0 0 400 400" style="enable-background:new 0 0 400 400;" xml:space="preserve">
<style type="text/css">
	.st0{fill:#FFFFFF;}
	.st1{fill:#006FD3;}
	.st2{fill:#1D1D1B;}
</style>
<rect x="448.5" y="0" class="st0" width="400" height="400"/>
<rect x="448.5" y="450" class="st1" width="400" height="400"/>
<rect x="0" y="0" class="st0" width="400" height="400"/>
<rect x="0" y="450" width="400" height="400"/>
<g>
	<path class="st2" d="M165.3,212.4c-2.7-5-4.2-10.8-4.2-16.5c0-19.1,15.6-34.7,34.7-34.7c6.5,0,12.9,1.8,18.4,5.2
		c0.7,0.4,1.6,0.2,2.1-0.5c0.4-0.7,0.2-1.6-0.5-2.1c-6-3.7-12.9-5.7-19.9-5.7c-20.8,0-37.7,16.9-37.7,37.7c0,6.3,1.6,12.5,4.6,18
		c0.3,0.5,0.8,0.8,1.3,0.8c0.2,0,0.5-0.1,0.7-0.2C165.5,214.1,165.7,213.1,165.3,212.4z"/>
	<path class="st2" d="M248.5,240.1L232.4,224c6-7.8,9.6-17.5,9.6-28.1c0-25.4-20.7-46.1-46.1-46.1s-46.1,20.7-46.1,46.1
		c0,16.6,8.8,31.2,22.1,39.3c0.1,0.1,0.2,0.2,0.4,0.2c3.3,2,6.8,3.5,10.5,4.6c0.1,0.1,0.3,0.1,0.5,0.1c3.4,1,7,1.6,10.7,1.8
		c0,0,0.1,0,0.1,0c0,0,0,0,0.1,0c0.6,0,1.3,0,1.9,0c3,0,5.9-0.3,8.7-0.8c0.1,0,0.1,0,0.2,0c3.7-0.7,7.3-1.9,10.6-3.5
		c0.1,0,0.3-0.1,0.4-0.2c2.9-1.4,5.7-3.1,8.2-5.1l16.1,16.1c1.1,1.1,2.6,1.7,4.2,1.7s3.1-0.6,4.2-1.7s1.7-2.6,1.7-4.2
		S249.7,241.2,248.5,240.1z M152.7,195.9c0-23.8,19.4-43.1,43.1-43.1s43.1,19.4,43.1,43.1c0,16.3-9.1,30.5-22.5,37.9v-54.3l-12.1-7
		l-12.1,7v12.7l-9.1-5.2l-12.1,7v37.4C160,223.5,152.7,210.5,152.7,195.9z M213.5,184.9l-7.6-4.2v-3.9l7.6,4.4V184.9z M205.9,184.1
		l7.6,4.2v46.9c-2.4,1.1-4.9,2-7.6,2.6V184.1z M192.4,238.7v0.1c-2.6-0.2-5.1-0.6-7.6-1.3v-46.3l7.6,4.4V238.7z M181.8,236.7
		c-2.7-0.9-5.2-2.1-7.6-3.5v-37.6l7.6-4.4V236.7z M195.4,239v-0.3v-44.9v-12.7l7.6-4.4v61.7c-2.3,0.4-4.7,0.6-7.1,0.6
		C195.7,239,195.5,239,195.4,239z M246.4,246.4c-1.1,1.1-3,1.1-4.2,0l-15.9-15.9c1.5-1.3,2.9-2.7,4.2-4.2l15.9,15.9
		c0.6,0.6,0.9,1.3,0.9,2.1S247,245.8,246.4,246.4z"/>
</g>
<g>
	<path class="st0" d="M165.3,662.4c-2.7-5-4.2-10.8-4.2-16.5c0-19.1,15.6-34.7,34.7-34.7c6.5,0,12.9,1.8,18.4,5.2
		c0.7,0.4,1.6,0.2,2.1-0.5c0.4-0.7,0.2-1.6-0.5-2.1c-6-3.7-12.9-5.7-19.9-5.7c-20.8,0-37.7,16.9-37.7,37.7c0,6.3,1.6,12.5,4.6,18
		c0.3,0.5,0.8,0.8,1.3,0.8c0.2,0,0.5-0.1,0.7-0.2C165.5,664.1,165.7,663.1,165.3,662.4z"/>
	<path class="st0" d="M248.5,690.1L232.4,674c6-7.8,9.6-17.5,9.6-28.1c0-25.4-20.7-46.1-46.1-46.1s-46.1,20.7-46.1,46.1
		c0,16.6,8.8,31.2,22.1,39.3c0.1,0.1,0.2,0.2,0.4,0.2c3.3,2,6.8,3.5,10.5,4.6c0.1,0.1,0.3,0.1,0.5,0.1c3.4,1,7,1.6,10.7,1.8
		c0,0,0.1,0,0.1,0c0,0,0,0,0.1,0c0.6,0,1.3,0,1.9,0c3,0,5.9-0.3,8.7-0.8c0.1,0,0.1,0,0.2,0c3.7-0.7,7.3-1.9,10.6-3.5
		c0.1,0,0.3-0.1,0.4-0.2c2.9-1.4,5.7-3.1,8.2-5.1l16.1,16.1c1.1,1.1,2.6,1.7,4.2,1.7s3.1-0.6,4.2-1.7s1.7-2.6,1.7-4.2
		S249.7,691.2,248.5,690.1z M152.7,645.9c0-23.8,19.4-43.1,43.1-43.1s43.1,19.4,43.1,43.1c0,16.3-9.1,30.5-22.5,37.9v-54.3l-12.1-7
		l-12.1,7v12.7l-9.1-5.2l-12.1,7v37.4C160,673.5,152.7,660.5,152.7,645.9z M213.5,634.9l-7.6-4.2v-3.9l7.6,4.4V634.9z M205.9,634.1
		l7.6,4.2v46.9c-2.4,1.1-4.9,2-7.6,2.6V634.1z M192.4,688.7v0.1c-2.6-0.2-5.1-0.6-7.6-1.3v-46.3l7.6,4.4V688.7z M181.8,686.7
		c-2.7-0.9-5.2-2.1-7.6-3.5v-37.6l7.6-4.4V686.7z M195.4,689v-0.3v-44.9v-12.7l7.6-4.4v61.7c-2.3,0.4-4.7,0.6-7.1,0.6
		C195.7,689,195.5,689,195.4,689z M246.4,696.4c-1.1,1.1-3,1.1-4.2,0l-15.9-15.9c1.5-1.3,2.9-2.7,4.2-4.2l15.9,15.9
		c0.6,0.6,0.9,1.3,0.9,2.1S247,695.8,246.4,696.4z"/>
</g>
<g>
	<path class="st1" d="M613.8,212.4c-2.7-5-4.2-10.8-4.2-16.5c0-19.1,15.6-34.7,34.7-34.7c6.5,0,12.9,1.8,18.4,5.2
		c0.7,0.4,1.6,0.2,2.1-0.5c0.4-0.7,0.2-1.6-0.5-2.1c-6-3.7-12.9-5.7-19.9-5.7c-20.8,0-37.7,16.9-37.7,37.7c0,6.3,1.6,12.5,4.6,18
		c0.3,0.5,0.8,0.8,1.3,0.8c0.2,0,0.5-0.1,0.7-0.2C613.9,214.1,614.2,213.1,613.8,212.4z"/>
	<path class="st1" d="M697,240.1L680.9,224c6-7.8,9.6-17.5,9.6-28.1c0-25.4-20.7-46.1-46.1-46.1s-46.1,20.7-46.1,46.1
		c0,16.6,8.8,31.2,22.1,39.3c0.1,0.1,0.2,0.2,0.4,0.2c3.3,2,6.8,3.5,10.5,4.6c0.1,0.1,0.3,0.1,0.5,0.1c3.4,1,7,1.6,10.7,1.8
		c0,0,0.1,0,0.1,0c0,0,0,0,0.1,0c0.6,0,1.3,0,1.9,0c3,0,5.9-0.3,8.7-0.8c0.1,0,0.1,0,0.2,0c3.7-0.7,7.3-1.9,10.6-3.5
		c0.1,0,0.3-0.1,0.4-0.2c2.9-1.4,5.7-3.1,8.2-5.1l16.1,16.1c1.1,1.1,2.6,1.7,4.2,1.7s3.1-0.6,4.2-1.7s1.7-2.6,1.7-4.2
		S698.1,241.2,697,240.1z M601.2,195.9c0-23.8,19.4-43.1,43.1-43.1s43.1,19.4,43.1,43.1c0,16.3-9.1,30.5-22.5,37.9v-54.3l-12.1-7
		l-12.1,7v12.7l-9.1-5.2l-12.1,7v37.4C608.5,223.5,601.2,210.5,601.2,195.9z M662,184.9l-7.6-4.2v-3.9l7.6,4.4V184.9z M654.4,184.1
		l7.6,4.2v46.9c-2.4,1.1-4.9,2-7.6,2.6V184.1z M640.8,238.7v0.1c-2.6-0.2-5.1-0.6-7.6-1.3v-46.3l7.6,4.4V238.7z M630.3,236.7
		c-2.7-0.9-5.2-2.1-7.6-3.5v-37.6l7.6-4.4V236.7z M643.8,239v-0.3v-44.9v-12.7l7.6-4.4v61.7c-2.3,0.4-4.7,0.6-7.1,0.6
		C644.2,239,644,239,643.8,239z M694.9,246.4c-1.1,1.1-3,1.1-4.2,0l-15.9-15.9c1.5-1.3,2.9-2.7,4.2-4.2l15.9,15.9
		c0.6,0.6,0.9,1.3,0.9,2.1S695.5,245.8,694.9,246.4z"/>
</g>
<g>
	<path class="st0" d="M613.8,662.4c-2.7-5-4.2-10.8-4.2-16.5c0-19.1,15.6-34.7,34.7-34.7c6.5,0,12.9,1.8,18.4,5.2
		c0.7,0.4,1.6,0.2,2.1-0.5c0.4-0.7,0.2-1.6-0.5-2.1c-6-3.7-12.9-5.7-19.9-5.7c-20.8,0-37.7,16.9-37.7,37.7c0,6.3,1.6,12.5,4.6,18
		c0.3,0.5,0.8,0.8,1.3,0.8c0.2,0,0.5-0.1,0.7-0.2C613.9,664.1,614.2,663.1,613.8,662.4z"/>
	<path class="st0" d="M697,690.1L680.9,674c6-7.8,9.6-17.5,9.6-28.1c0-25.4-20.7-46.1-46.1-46.1s-46.1,20.7-46.1,46.1
		c0,16.6,8.8,31.2,22.1,39.3c0.1,0.1,0.2,0.2,0.4,0.2c3.3,2,6.8,3.5,10.5,4.6c0.1,0.1,0.3,0.1,0.5,0.1c3.4,1,7,1.6,10.7,1.8
		c0,0,0.1,0,0.1,0c0,0,0,0,0.1,0c0.6,0,1.3,0,1.9,0c3,0,5.9-0.3,8.7-0.8c0.1,0,0.1,0,0.2,0c3.7-0.7,7.3-1.9,10.6-3.5
		c0.1,0,0.3-0.1,0.4-0.2c2.9-1.4,5.7-3.1,8.2-5.1l16.1,16.1c1.1,1.1,2.6,1.7,4.2,1.7s3.1-0.6,4.2-1.7s1.7-2.6,1.7-4.2
		S698.1,691.2,697,690.1z M601.2,645.9c0-23.8,19.4-43.1,43.1-43.1s43.1,19.4,43.1,43.1c0,16.3-9.1,30.5-22.5,37.9v-54.3l-12.1-7
		l-12.1,7v12.7l-9.1-5.2l-12.1,7v37.4C608.5,673.5,601.2,660.5,601.2,645.9z M662,634.9l-7.6-4.2v-3.9l7.6,4.4V634.9z M654.4,634.1
		l7.6,4.2v46.9c-2.4,1.1-4.9,2-7.6,2.6V634.1z M640.8,688.7v0.1c-2.6-0.2-5.1-0.6-7.6-1.3v-46.3l7.6,4.4V688.7z M630.3,686.7
		c-2.7-0.9-5.2-2.1-7.6-3.5v-37.6l7.6-4.4V686.7z M643.8,689v-0.3v-44.9v-12.7l7.6-4.4v61.7c-2.3,0.4-4.7,0.6-7.1,0.6
		C644.2,689,644,689,643.8,689z M694.9,696.4c-1.1,1.1-3,1.1-4.2,0l-15.9-15.9c1.5-1.3,2.9-2.7,4.2-4.2l15.9,15.9
		c0.6,0.6,0.9,1.3,0.9,2.1S695.5,695.8,694.9,696.4z"/>
</g>
</svg>
